Coordinates
version=1
nRows=8
nColumns=40
inDegrees=yes

Units are S.I. units (second, meters, Newtons, ...)
Angles are in degrees.

endheader
time	pelvis_tilt	pelvis_list	pelvis_rotation	pelvis_tx	pelvis_ty	pelvis_tz	hip_flexion_r	hip_adduction_r	hip_rotation_r	knee_angle_r	knee_angle_r_beta	ankle_angle_r	subtalar_angle_r	mtp_angle_r	hip_flexion_l	hip_adduction_l	hip_rotation_l	knee_angle_l	knee_angle_l_beta	ankle_angle_l	subtalar_angle_l	mtp_angle_l	lumbar_extension	lumbar_bending	lumbar_rotation	arm_flex_r	arm_add_r	arm_rot_r	elbow_flex_r	pro_sup_r	wrist_flex_r	wrist_dev_r	arm_flex_l	arm_add_l	arm_rot_l	elbow_flex_l	pro_sup_l	wrist_flex_l	wrist_dev_l
      0.35000000	     -6.43930073	     -2.36931069	      4.75175657	     -0.27345641	      0.88781149	     -1.01730123	     18.22419838	      3.20168617	    -16.02873574	    -24.09399393	     -0.42051952	      8.14775830	     -5.13057452	      6.91565405	     18.57009324	      8.94764094	      3.48768918	    -68.16752566	     -1.18974777	     -4.70707248	     18.76897421	     20.34686756	     -0.71804747	      1.61993210	     -3.73062740	     -5.54166695	     -9.07292159	     -8.16615442	     30.86222653	     89.95437384	      0.00000000	      0.00000000	     -1.60555574	     14.32491278	     14.62334068	     60.05662905	     89.95437384	      0.00000000	      0.00000000
      0.36000000	     -6.34647053	     -2.15928067	      4.36318696	     -0.26152769	      0.88925562	     -1.01615480	     16.92345497	      3.24433272	    -15.94363852	    -23.49408225	     -0.41004909	      8.37477501	     -4.63527465	      6.61846549	     20.08692681	      8.72810276	      4.08674932	    -68.74056619	     -1.19974921	     -3.06414291	     18.70863452	     20.08397629	     -0.88043030	      1.41801613	     -3.15148479	     -5.27784422	     -9.18974747	     -7.94085253	     32.27147111	     89.95437384	      0.00000000	      0.00000000	     -2.12346162	     13.98461387	     14.50807414	     58.97423737	     89.95437384	      0.00000000	      0.00000000
      0.37000000	     -6.16291125	     -2.01390178	      3.96473632	     -0.24969108	      0.89064969	     -1.01493386	     15.51111459	      3.36535071	    -15.86381427	    -22.82876541	     -0.39843712	      8.71024406	     -4.13170732	      6.13781226	     21.47253486	      8.63543905	      4.74014838	    -68.98546930	     -1.20402358	     -1.41597204	     18.61525109	     20.17851356	     -1.15678628	      1.29364209	     -2.55442055	     -4.99174779	     -9.30471495	     -7.86174934	     33.78410269	     89.95437384	      0.00000000	      0.00000000	     -2.61688124	     13.69185680	     14.36803864	     57.90753819	     89.95437384	      0.00000000	      0.00000000
      0.38000000	     -6.19906889	     -1.66543876	      3.71475658	     -0.23813102	      0.89167785	     -1.01398699	     14.50219132	      3.13383198	    -16.01324868	    -22.48238179	     -0.39239159	      8.86564074	     -4.01214595	      5.96774733	     23.10164333	      8.29372912	      5.43142508	    -68.87405335	     -1.20207900	     -0.66132647	     18.56043072	     19.82051013	     -1.20790410	      0.88370781	     -2.25648887	     -4.49353798	     -9.28141517	     -7.88448350	     34.92317488	     89.95437384	      0.00000000	      0.00000000	     -3.25415197	     13.41748148	     14.42036612	     56.93082811	     89.95437384	      0.00000000	      0.00000000
      0.39000000	     -6.19705395	     -1.46990378	      3.39919961	     -0.22655721	      0.89262152	     -1.01327330	     13.38771895	      3.10600511	    -15.81681547	    -21.96382616	     -0.38334108	      9.09319007	     -3.45021526	      5.64242437	     24.53998779	      7.91155022	      5.83190354	    -68.39846033	     -1.19377834	      1.04470315	     18.43637342	     19.43827230	     -1.28928149	      0.73035298	     -1.68318944	     -4.43223196	     -9.44717916	     -7.82136484	     36.76001328	     89.95437384	      0.00000000	      0.00000000	     -3.58731339	     12.96333362	     14.49148058	     55.62163755	     89.95437384	      0.00000000	      0.00000000
      0.40000000	     -6.10436529	     -1.24401404	      3.13453708	     -0.21496202	      0.89343336	     -1.01264550	     12.25301166	      3.00288692	    -15.81990037	    -21.58756328	     -0.37677406	      9.37176195	     -3.00825090	      5.28782057	     25.84671469	      7.62540033	      6.42119944	    -67.63977458	     -1.18053677	      2.10425874	     18.37911357	     19.16786718	     -1.47722395	      0.52491988	     -1.25739763	     -4.22154190	     -9.53718441	     -7.93264469	     38.50604843	     89.95437384	      0.00000000	      0.00000000	     -4.06633075	     12.62746961	     14.48157612	     54.49702993	     89.95437384	      0.00000000	      0.00000000
      0.41000000	     -5.80295458	     -1.04913096	      2.82074385	     -0.20314631	      0.89445588	     -1.01180486	     10.90801823	      2.90910162	    -15.95205213	    -21.23996390	     -0.37070730	      9.57125207	     -2.27187917	      4.59506721	     26.75927604	      7.45138046	      7.11347431	    -66.43969851	     -1.15959149	      3.01690866	     18.28930770	     19.21857132	     -1.89024632	      0.33586702	     -0.76169299	     -3.97707852	     -9.60939322	     -8.00195767	     40.13295334	     89.95437384	      0.00000000	      0.00000000	     -4.52650506	     12.35363753	     14.37156544	     53.40528492	     89.95437384	      0.00000000	      0.00000000
      0.42000000	     -5.90895990	     -1.01875412	      2.66796632	     -0.19150378	      0.89465693	     -1.01104939	     10.13643107	      2.95861091	    -16.05076100	    -21.27045132	     -0.37123941	      9.61954661	     -2.22759659	      4.43139996	     28.20456145	      7.34093126	      7.49578986	    -65.12432144	     -1.13663383	      3.46883065	     18.23252025	     18.87971276	     -1.77812565	      0.27188205	     -0.64244180	     -3.53801773	     -9.62606380	     -7.98610261	     41.44073973	     89.95437384	      0.00000000	      0.00000000	     -5.26851307	     12.10048895	     14.46751727	     52.48875779	     89.95437384	      0.00000000	      0.00000000
